<svg width="67" height="62" viewBox="0 0 67 62" fill="none" xmlns="http://www.w3.org/2000/svg">
<path d="M17.5 4.5L33.5 14V34.5L0 14L17.5 4.5Z" fill="#C4C4C4"/>
<path d="M50 4L33.5 14V34.5L67 14L50 4Z" fill="#C4C4C4"/>
<path d="M0 14L33.5 34.5V61.5L0 41.5V14Z" fill="#C4C4C4"/>
<path d="M67 14L33.5 34.5V61.5L67 41V14Z" fill="#C4C4C4"/>
<path d="M33.5 16L48.5 25L33.4996 34L18.5 25L33.5 16Z" fill="#FEC800"/>
<path d="M17.5 6.5L32.5 15.5L17.4996 24.5L2 15L17.5 6.5Z" fill="#015AAD"/>
<path d="M49.9999 5.99994L65 15L49.5 24.5L34.5 15.5L49.9999 5.99994Z" fill="#E11100"/>
<path d="M39.5 20.5C37 24.5 29.5 24.5 27 20V24.5C29.5 29 37 29 39.5 25V20.5Z" fill="#EFB100"/>
<path d="M39.5 20C39.5 21.6569 36.5 23.5 33.5 23.5C30.5 23.5 27 21.6569 27 20C27 18.3431 30.5 17 33.5 17C36.5 17 39.5 18.3431 39.5 20Z" fill="#FCC900"/>
<path d="M56.5 10.5C54 14.5 46.5 14.5 44 10V14.5C46.5 19 54 19 56.5 15V10.5Z" fill="#C60800"/>
<path d="M56.5 10C56.5 11.6569 53.5 13.5 50.5 13.5C47.5 13.5 44 11.6569 44 10C44 8.34315 47.5 7 50.5 7C53.5 7 56.5 8.34315 56.5 10Z" fill="#EB2010"/>
<path d="M23.5 10.5C21 14.5 13.5 14.5 11 10V14.5C13.5 19 21 19 23.5 15V10.5Z" fill="#164C96"/>
<path d="M23.5 10C23.5 11.6569 20.5 13.5 17.5 13.5C14.5 13.5 11 11.6569 11 10C11 8.34315 14.5 7 17.5 7C20.5 7 23.5 8.34315 23.5 10Z" fill="#1762B3"/>
<path d="M2 16L17 25V49L2 40V16Z" fill="#164C96"/>
<path d="M65 16L50 25V49L65 40V16Z" fill="#C60800"/>
<path d="M18 26L33 35V58.4998L18 49.8804V26Z" fill="#EFB100"/>
<path d="M49 26L34 35V58.4998L49 49.8804V26Z" fill="#D99600"/>
</svg>
